<?xml version="1.0" encoding="UTF-8" standalone="no"?>
<!-- Created with Inkscape (http://www.inkscape.org/) -->

<svg
   xmlns:dc="http://purl.org/dc/elements/1.1/"
   xmlns:cc="http://creativecommons.org/ns#"
   xmlns:rdf="http://www.w3.org/1999/02/22-rdf-syntax-ns#"
   xmlns:svg="http://www.w3.org/2000/svg"
   xmlns="http://www.w3.org/2000/svg"
   xmlns:sodipodi="http://sodipodi.sourceforge.net/DTD/sodipodi-0.dtd"
   xmlns:inkscape="http://www.inkscape.org/namespaces/inkscape"
   width="128"
   height="128"
   viewBox="0 0 128 128"
   id="svg2"
   version="1.1"
   inkscape:version="0.91 r13725"
   sodipodi:docname="icon.svg">
  <defs
     id="defs4" />
  <sodipodi:namedview
     id="base"
     pagecolor="#ffffff"
     bordercolor="#666666"
     borderopacity="1.0"
     inkscape:pageopacity="0.0"
     inkscape:pageshadow="2"
     inkscape:zoom="2.8"
     inkscape:cx="71.881866"
     inkscape:cy="54.167402"
     inkscape:document-units="px"
     inkscape:current-layer="layer1"
     showgrid="false"
     units="px"
     inkscape:window-width="1218"
     inkscape:window-height="643"
     inkscape:window-x="505"
     inkscape:window-y="207"
     inkscape:window-maximized="0" />
  <metadata
     id="metadata7">
    <rdf:RDF>
      <cc:Work
         rdf:about="">
        <dc:format>image/svg+xml</dc:format>
        <dc:type
           rdf:resource="http://purl.org/dc/dcmitype/StillImage" />
        <dc:title></dc:title>
      </cc:Work>
    </rdf:RDF>
  </metadata>
  <g
     inkscape:label="Layer 1"
     inkscape:groupmode="layer"
     id="layer1"
     transform="translate(0,-924.36216)">
    <text
       xml:space="preserve"
       style="font-style:normal;font-weight:normal;font-size:40px;line-height:125%;font-family:sans-serif;letter-spacing:0px;word-spacing:0px;fill:#008000;fill-opacity:1;stroke:none;stroke-width:0.6;stroke-linecap:butt;stroke-linejoin:miter;stroke-opacity:1;stroke-miterlimit:4;stroke-dasharray:none;"
       x="36.07143"
       y="1041.6478"
       id="text4195"
       sodipodi:linespacing="125%"><tspan
         sodipodi:role="line"
         id="tspan4197"
         x="36.07143"
         y="1041.6478"
         style="font-size:15px;stroke-width:0.6;stroke-miterlimit:4;stroke-dasharray:none;fill:#008000;">canary</tspan></text>
    <path
       style="fill:#00ff00;fill-rule:evenodd;stroke:#000000;stroke-width:1px;stroke-linecap:butt;stroke-linejoin:miter;stroke-opacity:1"
       d="m 22.857143,992.7193 c 1.383946,0.85042 2.610956,1.91599 3.928571,2.85715 1.130597,0.80756 1.332805,0.78526 2.5,1.78571 0.383483,0.3287 0.687946,0.74273 1.071429,1.07143 0.451938,0.38737 0.952381,0.71428 1.428571,1.07143 0.476191,0.35714 0.933304,0.74128 1.428572,1.07138 0.553846,0.3693 0.874725,0.3451 1.428571,0.7143 0.140083,0.093 0.238095,0.2381 0.357143,0.3572 0.476191,0.3571 0.91176,0.7761 1.428571,1.0714 0.326861,0.1868 0.734712,0.1888 1.071429,0.3571 1.486343,0.7432 -0.381798,-0.025 0.357143,0.7143 0.08418,0.084 0.244204,-0.038 0.357143,0 0.252538,0.084 0.526055,0.1689 0.714285,0.3572 0.08418,0.084 -0.09905,0.2911 0,0.3571 2.748473,1.8323 1.258484,0.5396 3.214286,1.4286 0.969353,0.4406 1.892244,0.9783 2.857143,1.4286 2.442745,1.1399 4.949595,2.007 7.5,2.8571 0.714286,0.2381 1.428572,0.4762 2.142857,0.7143 0.714286,0.2381 1.412415,0.5317 2.142857,0.7143 0.702518,0.1756 1.444235,0.1666 2.142858,0.3571 0.618501,0.1687 1.177521,0.5116 1.785714,0.7143 2.796833,0.9323 0.386066,0.1062 2.142857,0.3571 0.600925,0.086 1.202044,0.1904 1.785714,0.3572 0.255957,0.073 0.456035,0.2926 0.714286,0.3571 0.230986,0.058 0.47619,0 0.714286,0 0.238095,0 0.47619,0 0.714285,0 0.595238,0 1.190477,0 1.785715,0 0.238095,0 0.483299,0.058 0.714285,0 0.258251,-0.065 0.461748,-0.2729 0.714286,-0.3571 0.465657,-0.1552 0.962914,-0.2019 1.428572,-0.3572 0.252538,-0.084 0.47619,-0.2381 0.714285,-0.3571 0.952381,-0.4762 1.904762,-0.9524 2.857143,-1.4286 0.476191,-0.2381 0.942061,-0.498 1.428572,-0.7143 0.585836,-0.2603 1.225299,-0.4029 1.785714,-0.7142 0.520332,-0.2891 0.92381,-0.756 1.428571,-1.0715 1.226069,-0.7663 2.642479,-1.1426 3.928572,-1.7857 0.47619,-0.2381 0.972044,-0.4404 1.428571,-0.7143 0.144367,-0.087 0.222456,-0.2561 0.357143,-0.3571 0.343386,-0.2576 0.714286,-0.4762 1.071429,-0.7143 0.357142,-0.2381 0.687511,-0.5223 1.071428,-0.7143 0.336718,-0.1683 0.734711,-0.1888 1.071429,-0.3571 0.383917,-0.192 0.714285,-0.4762 1.071428,-0.7143 0.357143,-0.2381 0.722148,-0.4648 1.071429,-0.7143 0.484365,-0.346 0.944206,-0.7255 1.428571,-1.0714 1.142435,-0.8161 1.522599,-0.9517 2.857143,-1.78574 0.727977,-0.45498 1.40673,-0.98689 2.142857,-1.42857 0.228264,-0.13696 0.492795,-0.20948 0.714286,-0.35714 0.420249,-0.28017 0.65118,-0.79127 1.071429,-1.07143 0.09905,-0.066 0.258089,0.066 0.357142,0 1.197696,-0.79847 0.236419,-0.71429 1.071426,-0.71429"
       id="path4199"
       inkscape:connector-curvature="0" />
    <path
       style="fill:#00ffff;fill-rule:evenodd;stroke:#000000;stroke-width:1px;stroke-linecap:butt;stroke-linejoin:miter;stroke-opacity:1"
       d="m 32.857143,992.36216 c 0.658948,-1.07151 0.200695,-2.11915 0.357143,-3.21429 0.08585,-0.60092 0.290108,-1.1824 0.357143,-1.78571 0.05259,-0.47328 -0.05259,-0.95529 0,-1.42857 0.06703,-0.60331 0.238095,-1.19048 0.357142,-1.78572 0.119048,-0.59523 0.197424,-1.20007 0.357143,-1.78571 0.198108,-0.72639 0.531675,-1.41241 0.714286,-2.14286 0.175629,-0.70251 0.277175,-1.42315 0.357143,-2.14285 0.03944,-0.35496 -0.08662,-0.72495 0,-1.07143 0.155487,-0.62195 0.52575,-1.17298 0.714286,-1.78572 1.874553,-6.0923 -0.173416,-0.0206 1.071428,-5 0.06456,-0.25825 0.252282,-0.46961 0.357143,-0.71428 0.238095,-0.59524 0.476191,-1.19048 0.714286,-1.78572 0.238095,-0.35714 0.539958,-0.67919 0.714285,-1.07143 0.305792,-0.68803 0.476191,-1.42857 0.714286,-2.14285 0.119048,-0.35715 0.14832,-0.7582 0.357143,-1.07143 0.06604,-0.0991 0.250663,0.0532 0.357143,0 1.486343,-0.74317 -0.381799,0.0247 0.357143,-0.71429 0.08418,-0.0842 0.244204,0.0376 0.357143,0 0.252538,-0.0842 0.456035,-0.29258 0.714285,-0.35714 0.230987,-0.0578 0.476191,0 0.714286,0 0.119048,0 0.250663,0.0532 0.357143,0 0.150585,-0.0753 0.197424,-0.3039 0.357143,-0.35714 0.258446,-0.0861 1.310843,0.11772 1.428571,0 0.08418,-0.0842 -0.08418,-0.27297 0,-0.35715 0.110588,-0.11058 1.675126,0.11059 1.785715,0 0.08418,-0.0842 -0.08418,-0.27296 0,-0.35714 0.08418,-0.0842 0.238095,0 0.357142,0 0.199545,0 1.574955,-0.0703 1.785715,0 0.252538,0.0842 0.456035,0.29258 0.714285,0.35714 0.230987,0.0577 0.501327,-0.10648 0.714286,0 0.10648,0.0532 -0.08418,0.27297 0,0.35715 0.188231,0.18823 0.461748,0.27296 0.714286,0.35714 0.112938,0.0376 0.272963,-0.0842 0.357143,0 0.08418,0.0842 -0.08418,0.27296 0,0.35714 1.904762,0.95238 -0.357143,-0.35714 1.071428,1.07143 0.08418,0.0842 0.238095,0 0.357143,0 0.238095,0.2381 0.527509,0.43412 0.714286,0.71429 0.505777,0.75866 -0.799456,-0.0568 0.357143,0.71428 0.442981,0.29532 1.002653,0.39485 1.428571,0.71429 0.269374,0.20203 0.43412,0.52751 0.714286,0.71428 0.09905,0.066 0.24165,-0.0289 0.357143,0 0.365221,0.0913 0.734711,0.18879 1.071428,0.35715 0.620877,0.31044 1.141202,0.81362 1.785715,1.07143 0.563609,0.22544 1.204288,0.18271 1.785714,0.35714 3.089592,0.92688 0.646134,0.32307 2.857143,1.42857 0.336717,0.16836 0.714285,0.2381 1.071428,0.35714 0.357143,0.11905 0.702278,0.28331 1.071429,0.35715 0.161261,0.0322 2.033308,0.0365 2.142857,0 0.252538,-0.0842 0.492795,-0.20949 0.714286,-0.35715 0.280166,-0.18677 0.413116,-0.5637 0.714285,-0.71428 2.672997,-1.3365 -0.700641,1.00871 2.142858,-1.42857 1.689813,-1.44842 0.992538,-0.65512 2.5,-1.78572 0.134687,-0.10101 0.217059,-0.26375 0.357142,-0.35714 0.221491,-0.14766 0.50642,-0.19085 0.714286,-0.35714 0.394398,-0.31552 0.67703,-0.75591 1.071429,-1.07143 0.207866,-0.1663 0.501327,-0.19743 0.714285,-0.35715 0.404061,-0.30304 0.65118,-0.79126 1.071429,-1.07142 0.221491,-0.14766 0.47619,-0.2381 0.714286,-0.35715 0.746256,-0.37313 0.931686,-0.46389 1.785714,-0.35714 0.718546,0.0898 1.425997,0.25473 2.142857,0.35714 0.117851,0.0168 0.244205,-0.0376 0.357143,0 0.505076,0.16836 0.923495,0.54593 1.428571,0.71429 0.112939,0.0376 0.238096,0 0.357143,0 0.119048,0.11905 0.206558,0.28185 0.357143,0.35714 0.10648,0.0532 0.272964,-0.0842 0.357143,0 0.188231,0.18823 0.168912,0.52606 0.357143,0.71429 0.188231,0.18823 0.526055,0.16891 0.714286,0.35714 0.08418,0.0842 -0.03765,0.2442 0,0.35714 0.08418,0.25254 0.168912,0.52606 0.357142,0.71429 0.08418,0.0842 0.272964,-0.0842 0.357143,0 0.168359,0.16836 -0.168358,0.54592 0,0.71428 0.08418,0.0842 0.303903,-0.10648 0.357143,0 0.10648,0.21296 -0.04669,0.48082 0,0.71429 0.07383,0.36915 0.283313,0.70228 0.357143,1.07143 0.04669,0.23347 -0.106479,0.50133 0,0.71428 0.05324,0.10648 0.272963,-0.0842 0.357143,0 3.41e-4,3.5e-4 -5.4e-4,1.06981 0,1.07143 0.05324,0.15972 0.28185,0.20656 0.357143,0.35715 0.05324,0.10648 0,0.23809 0,0.35714 0,0.23809 -0.07529,0.48841 0,0.71428 0.626131,1.8784 0.644799,0.93246 1.428571,2.5 0.336718,0.67344 0.377568,1.46943 0.714286,2.14286 0.07529,0.15059 0.294616,0.20083 0.357143,0.35714 0.182295,0.45574 0.174847,0.97284 0.357143,1.42858 0.06253,0.15631 0.28185,0.20655 0.357142,0.35714 0.286705,0.57341 0.427582,1.2123 0.714286,1.78571 0.07529,0.15059 0.303903,0.19743 0.357143,0.35715 0.07529,0.22587 -0.04669,0.48081 0,0.71428 0.601405,3.00703 0.0055,0.011 0.714286,1.42857 0.113904,0.22781 -0.09548,1.69024 0,1.78572 0.08418,0.0842 0.272963,-0.0842 0.357143,0 0.09584,0.0958 -0.08384,1.17704 0,1.42857 0.08418,0.25254 0.272963,0.46175 0.357142,0.71428 0.07529,0.22588 -0.168358,0.54593 0,0.71429 0.08418,0.0842 0.272964,-0.0842 0.357143,0 0.09533,0.0953 -0.07602,1.55764 0,1.78571 0.08418,0.25254 0.272964,0.46175 0.357143,0.71429 0.03765,0.11294 -0.03765,0.2442 0,0.35714 0.08418,0.25254 0.29258,0.45604 0.357143,0.71429 0.05775,0.23099 -0.05775,0.4833 0,0.71428 0.06456,0.25825 0.272963,0.46175 0.357143,0.71429 0.03765,0.11294 -0.02887,0.24165 0,0.35714 0.09131,0.36522 0.265837,0.70621 0.357143,1.07143 0.02887,0.11549 -0.03765,0.24421 0,0.35714 0.410382,1.23115 0.357143,0.26456 0.357143,1.07143 0,0.11905 0,0.47619 0,0.35715 0,-0.2381 0,-0.95239 0,-0.71429 0,0.59524 0,1.19048 0,1.78571"
       id="path4201"
       inkscape:connector-curvature="0" />
  </g>
</svg>
